 <svg
          id="visual"
          viewBox="0 0 900 600"
          width="900"
          height="600"
          xmlns="http://www.w3.org/2000/svg"
          xmlns:xlink="http://www.w3.org/1999/xlink"
          version="1.1"
        >
          <path
            d="M639 600L640.5 588.8C642 577.7 645 555.3 647.8 533.2C650.7 511 653.3 489 661.8 466.8C670.3 444.7 684.7 422.3 695.7 400C706.7 377.7 714.3 355.3 722 333.2C729.7 311 737.3 289 739 266.8C740.7 244.7 736.3 222.3 729.7 200C723 177.7 714 155.3 709 133.2C704 111 703 89 699.7 66.8C696.3 44.7 690.7 22.3 687.8 11.2L685 0L900 0L900 11.2C900 22.3 900 44.7 900 66.8C900 89 900 111 900 133.2C900 155.3 900 177.7 900 200C900 222.3 900 244.7 900 266.8C900 289 900 311 900 333.2C900 355.3 900 377.7 900 400C900 422.3 900 444.7 900 466.8C900 489 900 511 900 533.2C900 555.3 900 577.7 900 588.8L900 600Z"
            fill="#C1FF72"
            fill-opacity="0.8"
          ></path>
          <path
            d="M788 600L777 588.8C766 577.7 744 555.3 741.5 533.2C739 511 756 489 758.8 466.8C761.7 444.7 750.3 422.3 742.2 400C734 377.7 729 355.3 730.2 333.2C731.3 311 738.7 289 740.5 266.8C742.3 244.7 738.7 222.3 744.3 200C750 177.7 765 155.3 772.3 133.2C779.7 111 779.3 89 776.8 66.8C774.3 44.7 769.7 22.3 767.3 11.2L765 0L900 0L900 11.2C900 22.3 900 44.7 900 66.8C900 89 900 111 900 133.2C900 155.3 900 177.7 900 200C900 222.3 900 244.7 900 266.8C900 289 900 311 900 333.2C900 355.3 900 377.7 900 400C900 422.3 900 444.7 900 466.8C900 489 900 511 900 533.2C900 555.3 900 577.7 900 588.8L900 600Z"
            fill="#34b36c"
          ></path>
          <path
            d="M786 600L795.5 588.8C805 577.7 824 555.3 830 533.2C836 511 829 489 828.2 466.8C827.3 444.7 832.7 422.3 835.3 400C838 377.7 838 355.3 838 333.2C838 311 838 289 836.8 266.8C835.7 244.7 833.3 222.3 823.7 200C814 177.7 797 155.3 794 133.2C791 111 802 89 811.5 66.8C821 44.7 829 22.3 833 11.2L837 0L900 0L900 11.2C900 22.3 900 44.7 900 66.8C900 89 900 111 900 133.2C900 155.3 900 177.7 900 200C900 222.3 900 244.7 900 266.8C900 289 900 311 900 333.2C900 355.3 900 377.7 900 400C900 422.3 900 444.7 900 466.8C900 489 900 511 900 533.2C900 555.3 900 577.7 900 588.8L900 600Z"
            fill="#298a44"
          ></path>
          
        </svg>